# xmcd CD database file
#
# Track frame offsets:
#	150
#	16472
#	34055
#	53007
#
# Disc length: 921 seconds
#
# Revision: 1
# Processed by: cddbd v1.5.1PL0 Copyright (c) Steve Scherf et al.
# Submitted via: CDex 1.40Beta9
#
DISCID=28039704
DTITLE=SE7EN - STYLE
DYEAR=2005
DGENRE=J-Pop
TTITLE0=STYLE
TTITLE1=FOREVER MIND
TTITLE2=THE ONE
TTITLE3=STYLE -instrumental
EXTD=YEAR: 2005/05/18
EXTT0=
EXTT1=
EXTT2=
EXTT3=
PLAYORDER=
